# xmcd CD database file
#
# Track frame offsets:
#	182
#	33450
#	51230
#	68100
#	83282
#	95180
#	102887
#	117462
#	141567
#
# Disc length: 2253 seconds
#
# Revision: 0
# Processed by: cddbd v1.4PL0 Copyright (c) Steve Scherf et al.
# Submitted via: CDex 1.40Beta9
#
DISCID=7d08cb09
DTITLE=Blues Trio - This Train
DYEAR=1994
DGENRE=Blues
TTITLE0=This Train/My Babe
TTITLE1=Big Mama Boogie
TTITLE2=Belgrade Blues
TTITLE3=Mama Keep Your Big Mouth Shut
TTITLE4=Walk On
TTITLE5=Custard Pie
TTITLE6=900 Miles From My Home
TTITLE7=Joe's Run
TTITLE8=Room To Move
EXTD=YEAR: 1994 ID3G: 0
EXTT0=
EXTT1=
EXTT2=
EXTT3=
EXTT4=
EXTT5=
EXTT6=
EXTT7=
EXTT8=
PLAYORDER=
